<svg width="512" height="512" viewBox="0 0 512 512" fill="none" xmlns="http://www.w3.org/2000/svg">
  <rect width="512" height="512" rx="128" fill="#050505" />
  <rect width="512" height="512" rx="128" stroke="#22D3EE" stroke-width="20" stroke-opacity="0.3" />
  <path d="M221 346.5C221 385.436 189.436 417 150.5 417C111.564 417 80 385.436 80 346.5C80 307.564 111.564 276 150.5 276C168.4 276 184.7 282.6 197 293V103C197 91.9543 205.954 83 217 83H432C443.046 83 452 91.9543 452 103V276C452 314.936 420.436 346.5 381.5 346.5C342.564 346.5 311 314.936 311 276C311 237.064 342.564 205.5 381.5 205.5C399.4 205.5 415.7 212.1 428 222.5V123H221V346.5Z" fill="#22D3EE"/>
</svg>
